<svg xmlns:xlink="http://www.w3.org/1999/xlink" width="30" xmlns="http://www.w3.org/2000/svg" height="30" id="screenshot-37d50b96-051d-804e-8002-5ac0843a1867" viewBox="0 0 30 30" style="-webkit-print-color-adjust: exact;" fill="none" version="1.1"><g id="shape-37d50b96-051d-804e-8002-5ac0843a1867" rx="0" ry="0"><g id="shape-37d50b96-051d-804e-8002-5ac0843a5c33"><g class="fills" id="fills-37d50b96-051d-804e-8002-5ac0843a5c33"><path rx="0" ry="0" d="M5.000,5.000L0.000,5.000L0.000,25.000L5.000,25.000L5.000,30.000L30.000,30.000L30.000,0.000L5.000,0.000L5.000,5.000Z" style="fill: rgb(6, 250, 153); fill-opacity: 1;"/></g></g><g id="shape-37d50b96-051d-804e-8002-5ac0843a5c34"><g class="fills" id="fills-37d50b96-051d-804e-8002-5ac0843a5c34"><rect rx="0" ry="0" x="11" y="4" transform="matrix(1.000000, 0.000000, 0.000000, 1.000000, 0.000000, 0.000000)" width="15" height="6" style="fill: rgb(0, 0, 0); fill-opacity: 1;"/></g></g><g id="shape-37d50b96-051d-804e-8002-5ac0843a5c35"><g class="fills" id="fills-37d50b96-051d-804e-8002-5ac0843a5c35"><path rx="0" ry="0" d="M11.000,20.000L26.000,20.000L26.000,26.000L11.000,26.000L11.000,20.000Z" style="fill: rgb(0, 0, 0); fill-opacity: 1;"/></g></g><g id="shape-37d50b96-051d-804e-8002-5ac0843a5c36"><g class="fills" id="fills-37d50b96-051d-804e-8002-5ac0843a5c36"><rect rx="0" ry="0" x="5" y="10" transform="matrix(1.000000, 0.000000, 0.000000, 1.000000, 0.000000, 0.000000)" width="6" height="10" style="fill: rgb(0, 0, 0); fill-opacity: 1;"/></g></g></g></svg>