<svg id="Layer_1" data-name="Layer 1" xmlns="http://www.w3.org/2000/svg" xmlns:xlink="http://www.w3.org/1999/xlink" viewBox="0 0 2000 629.33"><defs><style>.cls-1{fill:#fff;}.cls-2{fill:url(#linear-gradient);}</style><linearGradient id="linear-gradient" x1="314.84" y1="627.66" x2="314.84" y2="5.51" gradientUnits="userSpaceOnUse"><stop offset="0" stop-color="#00b1ff"/><stop offset="0.93" stop-color="#00f5e4"/></linearGradient></defs><title>Deus logo</title><path class="cls-1" d="M738.67,138.82a3.4,3.4,0,0,1,3.39-3.36H858.48c35.14,0,65.36,7.23,90.4,21.7a143.62,143.62,0,0,1,57.36,60.91Q1026,257.34,1026,310c0,36.14-6.78,67.3-19.79,93.65a137,137,0,0,1-57.6,60.23c-25,13.77-54.92,21-89.68,21H742.16a3.41,3.41,0,0,1-2.39-1,3.35,3.35,0,0,1-1-2.38Zm115.21,307.1A161.16,161.16,0,0,0,913,436.3c16.33-6.56,28.83-15.51,36.83-27.22a128.07,128.07,0,0,0,19.14-42,240.34,240.34,0,0,0,5.89-57.21,215.2,215.2,0,0,0-6.26-56.46,131.9,131.9,0,0,0-19.11-41.29,82.34,82.34,0,0,0-37.54-27.9,158.35,158.35,0,0,0-58-10.1H787.47a3.41,3.41,0,0,0-2.4,1,3.34,3.34,0,0,0-1,2.38V442.26a3.35,3.35,0,0,0,1,2.38,3.4,3.4,0,0,0,2.4,1Z"/><path class="cls-1" d="M1085.56,135.29h243a3.42,3.42,0,0,1,2.4,1,3.36,3.36,0,0,1,1,2.38v33.65a3.38,3.38,0,0,1-1,2.38,3.41,3.41,0,0,1-2.4,1H1130.76a3.38,3.38,0,0,0-2.39,1,3.35,3.35,0,0,0-1,2.38v74.7a3.33,3.33,0,0,0,1,2.38,3.38,3.38,0,0,0,2.39,1h179a3.36,3.36,0,0,1,3.39,3.36v33.38a3.36,3.36,0,0,1-1,2.38,3.42,3.42,0,0,1-2.4,1h-224.2a3.38,3.38,0,0,1-2.39-1,3.33,3.33,0,0,1-1-2.38V138.59a3.38,3.38,0,0,1,3.39-3.3Z"/><path class="cls-1" d="M1082.1,332.32a3.35,3.35,0,0,1,1-2.38,3.38,3.38,0,0,1,2.39-1h224.27a3.38,3.38,0,0,1,2.39,1,3.35,3.35,0,0,1,1,2.38V365.7a3.35,3.35,0,0,1-1,2.38,3.38,3.38,0,0,1-2.39,1h-179a3.41,3.41,0,0,0-2.4,1,3.38,3.38,0,0,0-1,2.38v68.51a3.36,3.36,0,0,0,1,2.38,3.42,3.42,0,0,0,2.4,1h197.77a3.38,3.38,0,0,1,3.39,3.36v33.42a3.38,3.38,0,0,1-3.39,3.36h-243a3.41,3.41,0,0,1-2.4-1,3.38,3.38,0,0,1-1-2.38Z"/><path class="cls-1" d="M1423.43,459.69c-23.71-20.66-35.1-50.95-35.1-90.19V138.82a3.38,3.38,0,0,1,3.39-3.36h38.66a3.4,3.4,0,0,1,3.39,3.36V369.5a79.1,79.1,0,0,0,12.5,45.09,76.75,76.75,0,0,0,33.37,27.57,118.28,118.28,0,0,0,46.22,8.95,121.13,121.13,0,0,0,46.25-8.95A75.31,75.31,0,0,0,1606,414.59a78.3,78.3,0,0,0,12.5-45.09V138.82a3.4,3.4,0,0,1,3.39-3.36h38.93a3.38,3.38,0,0,1,3.39,3.36V369.5c0,39.24-11.82,69.19-35.44,90.19S1571.16,491,1526.2,491,1446.71,480.69,1423.43,459.69Z"/><path class="cls-1" d="M1784.92,477.59a121.05,121.05,0,0,1-52.86-40.38q-18.74-25.81-19.79-63a3.35,3.35,0,0,1,.9-2.28,3.38,3.38,0,0,1,2.22-1.08l41.37-4.14a3.45,3.45,0,0,1,1.43.12,3.4,3.4,0,0,1,1.26.7,3.35,3.35,0,0,1,.85,1.15,3.5,3.5,0,0,1,.29,1.39,82.3,82.3,0,0,0,12.5,43A78.62,78.62,0,0,0,1807,442.73a113.84,113.84,0,0,0,49.37,10.33q43.31,0,69.86-15.51c17.73-10.3,26.43-27.19,26.43-50.95a37.41,37.41,0,0,0-2.52-15.45,37.82,37.82,0,0,0-8.59-13.12A71.59,71.59,0,0,0,1914,342.55a419.1,419.1,0,0,0-44.49-9.66c-14.6-2.73-25-4.81-32.32-6.19a380.12,380.12,0,0,1-58.75-18.24,105.46,105.46,0,0,1-40.32-29.95c-10.78-13.09-16.33-29.95-16.33-50.95,0-22.38,6.27-41,18.43-55.79a105.28,105.28,0,0,1,47.23-32.24,173.93,173.93,0,0,1,59.43-10.33c39.61,0,72.31,9,97.31,26.52s38.93,44.38,43.1,81.57a3.32,3.32,0,0,1-.61,2.46,3.41,3.41,0,0,1-2.17,1.34l-40.32,6.73a3.57,3.57,0,0,1-3.72-1.73,3.63,3.63,0,0,1-.45-1.37,82.89,82.89,0,0,0-11.82-40.61,73.56,73.56,0,0,0-32.32-28.1,117,117,0,0,0-50.05-9.63,101.86,101.86,0,0,0-36.15,6.53,73.66,73.66,0,0,0-29.55,20,48.56,48.56,0,0,0-11.45,31,40,40,0,0,0,3.69,17.91,40.45,40.45,0,0,0,11.25,14.46,100.58,100.58,0,0,0,35.44,17.57,434.76,434.76,0,0,0,51.1,11A435.39,435.39,0,0,1,1940,300.18a95.62,95.62,0,0,1,43.1,27.9c11.15,13.09,16.94,31,16.94,54.41,0,26.48-6.78,47.85-20.33,63.94a112.67,112.67,0,0,1-52.14,34.09A234.86,234.86,0,0,1,1858,490.61,187.61,187.61,0,0,1,1784.92,477.59Z"/><path class="cls-2" d="M315,0,0,314.58,315.19,629.33,629.68,315ZM555.89,299.09,479.1,308a47.86,47.86,0,0,0-53.17-18.8l-63.55-63.56a48.61,48.61,0,0,0,.44-6.19,47.94,47.94,0,0,0-27.11-43.16V78.91ZM294.49,78.91V176a48,48,0,0,0-27.64,43.41,46.84,46.84,0,0,0,.52,6.64l-63.21,63.21a48,48,0,0,0-53.54,18.64l-76.31-8.83ZM86,341.93l58,6.73a48,48,0,0,0,46,34.49h.08l56,118.92ZM315.1,551.76,227.37,365.37a47.83,47.83,0,0,0,7.19-48.21l56.24-56.24a47.67,47.67,0,0,0,48.4-.2l56.05,56.06a48,48,0,0,0,7.39,49ZM384,502.07l56-118.94a48,48,0,0,0,45.57-34.41l58.58-6.79Z"/></svg>