<?xml version="1.0" encoding="UTF-8"?><svg id="Layer_1" xmlns="http://www.w3.org/2000/svg" viewBox="0 0 452.54 452.63"><path d="M452.54,226.4c.29,124.53-101.46,227.24-228.23,226.22C100.91,451.63-1.32,350.9,.01,223.69,1.33,98.87,103.88-2.21,230.49,.04c123.81,2.2,222.4,103.59,222.04,226.36Zm-226.31,206.36c113.84-.31,204.77-91.29,206.42-203.15,1.72-116.6-91.79-207.84-202.77-209.65C114.82,18.07,21.05,110.56,19.93,224.2c-1.12,113.76,90.46,208.21,206.3,208.55h0Z"/><path d="M175.06,113.48c17.69,53.84,35.39,107.68,53.17,161.79-1.25,.07-2.16,.15-3.08,.15-36.61,0-73.21,.05-109.82,0-26.75-.05-47.1-21.15-45.59-47.77,.93-16.37,8.77-28.95,23.41-36.74,25.65-13.65,51.38-27.12,77.11-40.61,1.61-.85,2.24-1.8,2.32-3.64,.51-11.06,1.18-22.1,1.79-33.16,.22,0,.45,0,.67-.02h0Zm25.51,118.18c-4.54-13.81-8.95-27.2-13.4-40.71-.69,.28-1.08,.4-1.44,.59-15.47,8.01-30.86,16.19-46.43,23.98-10.26,5.14-19.76,12.68-32.3,11.51-.1,0-.24,0-.31,.06-.7,.69-2.01,1.5-1.92,2.07,.16,.89,1.12,1.93,2,2.35,.88,.41,2.07,.16,3.13,.16h90.66Z"/><path d="M224.32,177.18h4.06c36.39,0,72.8,0,109.19,0,21,0,38.72,13.69,44.04,33.97,5.24,19.98-3.9,40.95-22.14,50.59-25.5,13.48-51.02,26.92-76.57,40.29-2.05,1.07-2.89,2.32-2.98,4.61-.47,10.85-1.08,21.68-2.3,32.67-17.7-53.85-35.41-107.71-53.29-162.13h0Zm27.73,43.77c4.57,13.92,8.96,27.27,13.41,40.8,1.12-.54,1.87-.89,2.61-1.27,19.68-10.21,39.38-20.38,59.02-30.64,4.96-2.59,10.05-4.33,15.72-4.19,1.94,.05,4.9,.84,4.94-2.3,.04-3.17-2.94-2.37-4.88-2.37-28.96-.04-57.94-.03-86.9-.03h-3.91Z"/><path d="M238.06,134.1v-26.51h26.46v26.51h-26.46Z"/><path d="M187.96,344.95v-26.33h26.33v26.33h-26.33Z"/></svg>