<svg xmlns:xlink="http://www.w3.org/1999/xlink" width="452.5" xmlns="http://www.w3.org/2000/svg" height="452.63" id="screenshot-f33872df-3e3f-800f-8002-c0c7c23f1edf" viewBox="0 0 452.5 452.63" style="-webkit-print-color-adjust: exact;" fill="none" version="1.1"><g id="shape-f33872df-3e3f-800f-8002-c0c7c23f1edf"><defs><clipPath class="frame-clip-def frame-clip" id="frame-clip-f33872df-3e3f-800f-8002-c0c7c23f1edf-rumext-id-1"><rect rx="0" ry="0" x="0" y="0" width="452.5" height="452.6300000000017" transform="matrix(1.000000, 0.000000, 0.000000, 1.000000, 0.000000, 0.000000)"/></clipPath></defs><g clip-path="url(#frame-clip-f33872df-3e3f-800f-8002-c0c7c23f1edf-rumext-id-1)"><clipPath class="frame-clip-def frame-clip" id="frame-clip-f33872df-3e3f-800f-8002-c0c7c23f1edf-rumext-id-1"><rect rx="0" ry="0" x="0" y="0" width="452.5" height="452.6300000000017" transform="matrix(1.000000, 0.000000, 0.000000, 1.000000, 0.000000, 0.000000)"/></clipPath><g class="fills" id="fills-f33872df-3e3f-800f-8002-c0c7c23f1edf"><rect rx="0" ry="0" x="0" y="0" transform="matrix(1.000000, 0.000000, 0.000000, 1.000000, 0.000000, 0.000000)" width="452.5" height="452.6300000000017" class="frame-background"/></g><g class="frame-children"><g id="shape-f33872df-3e3f-800f-8002-c0c8a4d2f0aa"><g class="fills" id="fills-f33872df-3e3f-800f-8002-c0c8a4d2f0aa"><ellipse rx="220.5000000000004" ry="220.49999999999966" cx="225.5000000000004" cy="226.50000000000034" transform="matrix(1.000000, 0.000000, 0.000000, 1.000000, 0.000000, 0.000000)" style="fill: rgb(255, 255, 255); fill-opacity: 1;"/></g></g><g id="shape-f33872df-3e3f-800f-8002-c0c7880369ac" rx="0" ry="0" style="fill: rgb(0, 0, 0);"><g id="shape-f33872df-3e3f-800f-8002-c0c78806c879"><g class="fills" id="fills-f33872df-3e3f-800f-8002-c0c78806c879"><path rx="0" ry="0" d="M452.540,226.400C452.830,350.930,351.080,453.640,224.310,452.620C100.910,451.630,-1.320,350.900,0.010,223.690C1.330,98.870,103.880,-2.210,230.490,0.040C354.300,2.240,452.890,103.630,452.540,226.400ZZM226.230,432.760C340.070,432.450,431.000,341.470,432.650,229.610C434.370,113.010,340.860,21.770,229.880,19.960C114.820,18.070,21.050,110.560,19.930,224.200C18.810,337.960,110.390,432.410,226.230,432.760ZL226.230,432.760ZZ"/></g></g><g id="shape-f33872df-3e3f-800f-8002-c0c7880878a2"><g class="fills" id="fills-f33872df-3e3f-800f-8002-c0c7880878a2"><path rx="0" ry="0" d="M175.060,113.480C192.750,167.320,210.450,221.160,228.230,275.270C226.980,275.340,226.070,275.420,225.150,275.420C188.540,275.420,151.940,275.470,115.330,275.420C88.580,275.370,68.230,254.270,69.740,227.650C70.670,211.280,78.510,198.700,93.150,190.910C118.800,177.260,144.530,163.790,170.260,150.300C171.870,149.450,172.500,148.500,172.580,146.660C173.090,135.600,173.760,124.560,174.370,113.500C174.590,113.500,174.820,113.500,175.060,113.480ZL175.060,113.480ZZM200.570,231.660C196.030,217.850,191.620,204.460,187.170,190.950C186.480,191.230,186.090,191.350,185.730,191.540C170.260,199.550,154.870,207.730,139.300,215.520C129.040,220.660,119.540,228.200,107.000,227.030C106.900,227.030,106.760,227.030,106.690,227.090C105.990,227.780,104.680,228.590,104.770,229.160C104.930,230.050,105.890,231.090,106.770,231.510C107.650,231.920,108.840,231.670,109.900,231.670L200.570,231.660ZZ"/></g></g><g id="shape-f33872df-3e3f-800f-8002-c0c7880990ac"><g class="fills" id="fills-f33872df-3e3f-800f-8002-c0c7880990ac"><path rx="0" ry="0" d="M224.320,177.180L228.380,177.180C264.770,177.180,301.180,177.180,337.570,177.180C358.570,177.180,376.290,190.870,381.610,211.150C386.850,231.130,377.710,252.100,359.470,261.740C333.970,275.220,308.450,288.660,282.900,302.030C280.850,303.100,280.010,304.350,279.920,306.640C279.450,317.490,278.840,328.320,277.620,339.310C259.920,285.460,242.210,231.600,224.320,177.180ZL224.320,177.180ZZM252.050,220.950C256.620,234.870,261.010,248.220,265.460,261.750C266.580,261.210,267.330,260.860,268.070,260.480C287.750,250.270,307.450,240.100,327.090,229.840C332.050,227.250,337.140,225.510,342.810,225.650C344.750,225.700,347.710,226.490,347.750,223.350C347.790,220.180,344.810,220.980,342.870,220.980C313.910,220.940,284.930,220.950,255.970,220.950L252.050,220.950ZZ"/></g></g><g id="shape-f33872df-3e3f-800f-8002-c0c7880a2b0f"><g class="fills" id="fills-f33872df-3e3f-800f-8002-c0c7880a2b0f"><path rx="0" ry="0" d="M238.060,134.100L238.060,107.590L264.520,107.590L264.520,134.100L238.060,134.100ZZ"/></g></g><g id="shape-f33872df-3e3f-800f-8002-c0c7880a5247"><g class="fills" id="fills-f33872df-3e3f-800f-8002-c0c7880a5247"><path rx="0" ry="0" d="M187.960,344.950L187.960,318.620L214.290,318.620L214.290,344.950L187.960,344.950ZZ"/></g></g></g></g></g></g></svg>