<?xml version="1.0" encoding="UTF-8"?><svg id="Layer_1" xmlns="http://www.w3.org/2000/svg" viewBox="0 0 646.16 302.64"><defs><style>.cls-1{fill:#fff;}</style></defs><path class="cls-1" d="M275.8,185.32h-31.57V0h31.47V74c.52-.45,.78-.57,.89-.77,7.82-14.13,24.3-21.85,42.43-19.24,19.95,2.87,33.03,15.54,37.35,36.15,1.26,5.99,1.93,12.19,1.98,18.32,.23,24.37,.08,48.75,.08,73.12v3.64h-31.76v-3.26c0-23.41,.04-46.82-.04-70.23-.01-3.73-.32-7.53-1.09-11.18-2.34-11.29-10.19-17.58-21.87-17.87-17.75-.46-27.83,9.78-27.87,28.46-.06,23.51,0,47.02,0,70.52v3.66h0Z"/><path class="cls-1" d="M131.11,131.09H33.63c-.11,11.55,9.41,23.59,21.56,27.26,8.69,2.62,17.47,2.72,26.16-.13,4.74-1.55,8.59-4.41,11.71-8.27,.59-.73,1.61-1.59,2.43-1.59,10.81-.11,21.62-.07,32.86-.07-.34,1.23-.55,2.2-.89,3.14-7.34,20.03-22.17,31.46-42.88,35.45-20.21,3.91-39.5,1.2-56.61-10.81C10.15,163.52,1.05,146,.09,124.53c-.95-21.29,5.64-40.03,21.96-54.41,19.16-16.9,41.67-20.82,65.73-13.03,23.76,7.7,37.03,25.18,42.28,48.89,1.81,8.13,2.17,16.39,1.06,25.11h0Zm-33.94-22.63c0-14.29-14.1-26.87-30.54-27.27-19.3-.46-30.59,15.37-32.2,27.27h62.74Z"/><path class="cls-1" d="M381.31,121.24c.38-31.66,20.28-57.94,50.02-65.64,37.29-9.65,75.35,14.24,81.96,51.8,4.39,25.01-1.5,47.31-21.12,64.48-19.23,16.84-41.94,20.9-66.06,12.72-23.85-8.08-37.99-25.34-43.15-49.65-.96-4.49-1.11-9.14-1.64-13.71h-.01Zm66.69,39.02c13.35-.35,23.21-6.26,28.93-17.91,6.66-13.56,6.62-27.65,.45-41.32-5.65-12.5-15.62-19.48-29.86-19.25-13.86,.22-23.38,7.38-28.79,19.56-5.83,13.11-5.95,26.66-.02,39.76,5.59,12.35,15.61,18.78,29.29,19.16h-.01Z"/><path class="cls-1" d="M528.02,145.68h31.9c3.66,11.94,13.39,15.18,24.58,16.06,6.63,.52,13.29,.47,19.64-1.83,2.51-.91,5.05-2.16,7.11-3.82,6.09-4.94,5.08-13.55-2.26-16.32-5.76-2.19-11.97-3.32-18.04-4.63-10.36-2.25-20.86-3.91-31.11-6.5-9.12-2.3-17.3-6.57-22.76-14.65-11.09-16.42-5.77-40,11.47-51.12,8.54-5.5,18.06-8.11,28.08-8.94,13.66-1.14,27.11-.31,39.75,5.55,12.53,5.82,20.87,15.19,24.2,28.66,.3,1.19,.45,2.4,.72,3.85-1.16,.07-2,.15-2.85,.15-8.87,0-17.75,.04-26.63-.04-1,0-2.58-.4-2.92-1.1-3.19-6.46-8.9-9.21-15.54-10.55-6.67-1.35-13.41-1.27-19.98,.52-2.3,.63-4.61,1.69-6.53,3.06-6.33,4.51-5.7,12.77,1.45,15.72,4.8,1.98,10.04,3,15.14,4.12,11.86,2.61,23.82,4.87,35.64,7.62,3.44,.8,6.75,2.54,9.86,4.27,13.93,7.74,18.55,21.05,16.86,36.19-1.64,14.69-10.19,24.85-23.65,30.19-24.06,9.54-48.24,9.01-71.56-2.57-12.53-6.22-20.28-16.57-22.31-30.62-.16-1.02-.18-2.06-.29-3.28v.03Z"/><path class="cls-1" d="M221.83,186.42c-13.45,2.51-26.51,2.12-38.83-4.06-12.56-6.31-18.74-17.27-21.21-30.48-.9-4.8-1.31-9.74-1.35-14.64-.17-16.57-.06-33.13-.06-49.71v-3.84h-16.79v-26.52h16.69V20.82h31.83V57.01h28.26v26.52h-27.88c-.16,.57-.32,.92-.32,1.27,.03,17.82,0,35.65,.18,53.46,.03,3.04,.62,6.15,1.47,9.08,2.37,8.16,8.28,12.33,17.79,12.56,3.37,.08,6.76-.42,10.23-.66v27.16h-.01Z"/><path class="cls-1" d="M61.82,247.96c8.78,0,17.48-.61,26.05,.15,10.95,.98,16.65,10.23,13.49,20.45-1.59,5.15-5.47,7.99-10.79,9.86,4.36,6.14,8.57,12.07,13.15,18.53-3.58,0-6.63,.11-9.68-.08-.73-.04-1.55-1-2.09-1.73-3.17-4.38-6.36-8.76-9.38-13.24-1.1-1.65-2.34-2.29-4.32-2.18-2.51,.15-5.02,.04-7.86,.04v17.02h-8.58v-48.84h.01Zm8.64,24.41c5.59-.28,10.94-.22,16.2-.89,4.05-.52,6.56-4.02,6.51-7.76-.06-3.81-2.34-7.09-6.39-7.46-5.35-.5-10.79-.13-16.31-.13v16.24h0Z"/><path class="cls-1" d="M393.97,279.8v16.98h-8.62v-48.58c9.13,0,18.19-.6,27.13,.18,7.66,.67,12.36,5.94,13.07,12.36,.92,8.37-2.17,13.77-9.79,17.1-.43,.18-.83,.39-1.51,.71,4.33,6.11,8.52,12.05,13.04,18.43-3.57,0-6.56,.11-9.54-.08-.75-.04-1.62-.92-2.13-1.63-3.24-4.45-6.31-9.04-9.65-13.41-.79-1.02-2.39-1.83-3.71-1.98-2.58-.31-5.22-.08-8.3-.08h.01Zm.08-7.44c5.57-.26,10.92-.22,16.19-.89,4.06-.52,6.58-4,6.52-7.76-.06-3.81-2.34-7.09-6.38-7.46-5.35-.5-10.79-.13-16.33-.13v16.23h0Z"/><path class="cls-1" d="M146.08,247.9h36.38v7.69h-27.62v12.84h24.34v7.65h-24.37v12.95h27.94v7.77h-36.67v-48.89h0Z"/><path class="cls-1" d="M304.66,247.9h36.38v7.7h-27.62v12.84h24.34v7.65h-24.37v12.95h27.94v7.77h-36.69v-48.89h.01Z"/><path class="cls-1" d="M554.53,247.9h36.38v7.7h-27.61v12.84h24.35v7.65h-24.37v12.95h27.94v7.77h-36.69v-48.89h0Z"/><path class="cls-1" d="M259.6,253.58c-1.57,2.19-3.02,4.21-4.13,5.78-4.33-1.48-8.4-2.87-12.47-4.24-.54-.18-1.16-.18-1.74-.15-4.18,.15-7.1,2.12-7.58,5.08-.49,3.06,1.14,5.15,5.57,6.63,4.6,1.55,9.43,2.54,13.86,4.42,6.96,2.96,9.52,9.01,7.41,16.18-1.3,4.37-4.26,7.27-8.49,8.92-9.07,3.54-22.13,.66-29.2-6.6,1.69-2,3.4-4.02,5.24-6.18,4.29,3.64,8.83,6.25,14.34,6.32,2.26,.03,4.74-.29,6.75-1.26,4.22-2.01,4.28-7.27,.11-9.39-2.64-1.34-5.66-1.95-8.51-2.9-2.77-.91-5.6-1.65-8.27-2.76-4.67-1.97-7.38-5.41-7.65-10.63-.3-5.85,1.83-10.35,7.01-13.27,7.82-4.41,20.71-2.57,27.76,4.06h0Z"/><path class="cls-1" d="M512.98,247.69c-2.65,6.4-5.12,12.35-7.58,18.29-4.05,9.79-8.14,19.56-12.09,29.4-.69,1.73-1.59,2.27-3.41,2.25-5.43-.07-5.43,0-7.55-5.09-5.74-13.88-11.5-27.76-17.24-41.65-.37-.86-.66-1.77-1.17-3.15,3.21,0,6.08-.15,8.92,.11,.68,.06,1.44,1.38,1.79,2.27,4.16,10.46,8.26,20.96,12.38,31.45,.43,1.07,.88,2.12,1.53,3.71,2.14-5.43,4.11-10.38,6.05-15.36,2.6-6.64,5.22-13.27,7.72-19.94,.64-1.69,1.48-2.47,3.37-2.33,2.22,.17,4.46,.04,7.28,.04h.02Z"/><path class="cls-1" d="M15.71,297.99h6.31v4.59H9.7v-58.05h13.02c-.65,1.83-.76,4-1.82,4.65-1.26,.75-3.33,.18-5.21,.18v48.64h.01Z"/><path class="cls-1" d="M643.12,302.64h-12.28v-4.48c2.02-.1,4.09-.2,6.36-.31v-48.19c-2.17-.25-4.36-.18-6.25-.91-.58-.22-.3-2.61-.43-4.21h12.59v58.08h0Z"/></svg>