<svg width="543" height="245" viewBox="0 0 543 245" fill="none" xmlns="http://www.w3.org/2000/svg">
<path d="M110.5 233C171.527 233 221 183.527 221 122.5C221 61.4725 171.527 12 110.5 12C49.4725 12 0 61.4725 0 122.5C0 183.527 49.4725 233 110.5 233Z" fill="#FFDEDB"/>
<path d="M110.504 92.3029C107.651 89.762 101.995 86.2588 92.181 86.3048C82.367 86.3507 83.971 91.302 83.971 91.302C83.971 91.302 83.77 95.342 90.18 95.468C96.59 95.593 103.462 95.842 109.037 97.885C114.612 99.928 113.36 94.839 110.504 92.3029Z" fill="#FF4642"/>
<path d="M87.31 101.531C86.72 101.879 86.569 102.858 87.253 102.982C91.129 103.673 97.26 104.93 104.099 103.85C104.747 103.748 104.65 102.883 104.181 102.435C101.755 100.112 95.239 96.855 87.31 101.531Z" fill="#FF4642"/>
<path d="M167.952 166.505C167.862 166.381 167.74 166.283 167.597 166.223C167.455 166.163 167.298 166.143 167.145 166.165C166.991 166.187 166.847 166.25 166.728 166.347C166.609 166.444 166.519 166.571 166.47 166.715C162.481 178.32 159.215 175.477 157.706 172.982C157.182 172.1 156.791 171.149 156.545 170.158C152.738 155.333 156.224 141.678 156.224 141.678C158.296 147.988 163.73 149.859 166.514 150.406C166.673 150.438 166.837 150.425 166.988 150.368C167.139 150.312 167.27 150.214 167.367 150.088C167.463 149.961 167.521 149.809 167.532 149.652C167.544 149.494 167.51 149.336 167.433 149.197C156.767 128.739 163.073 120.069 163.073 120.069C164.909 122.066 167.935 122.245 169.841 122.141C170.002 122.132 170.157 122.079 170.288 121.988C170.419 121.897 170.521 121.771 170.582 121.626C170.643 121.48 170.662 121.321 170.635 121.166C170.608 121.011 170.536 120.866 170.429 120.749C162.7 112.398 162.112 109.565 161.811 95.422C161.646 87.5838 158.832 83.4618 156.216 81.3149C153.223 78.8611 150.834 75.7351 149.527 72.128C139.099 43.4404 119.587 39.6496 101.481 40.723C79.0034 42.0575 67.0357 58.8938 61.3545 67.283C55.3447 76.1532 50.6614 89.2689 50.9776 93.2822C51.2938 97.295 55.078 96.667 55.078 101.306C55.078 105.946 47.7516 109.804 50.6318 122.847C51.9039 128.594 57.054 132.902 54.7371 146.03C50.5947 169.624 69.0736 198.292 73.6778 202.569C74.2361 203.083 75.2167 202.668 75.1154 201.923C74.3966 196.657 75.4489 189.351 75.4489 189.351C84.707 208.772 110.608 205.17 118.72 203.504C118.892 203.469 119.049 203.383 119.169 203.258C119.289 203.133 119.367 202.974 119.391 202.804C119.416 202.634 119.386 202.461 119.306 202.308C119.226 202.155 119.1 202.03 118.945 201.95C110.754 197.692 108.882 189.042 108.882 189.042C117.033 192.818 122.255 192.185 124.772 191.375C124.925 191.325 125.06 191.234 125.162 191.111C125.264 190.989 125.329 190.841 125.348 190.684C125.368 190.527 125.341 190.368 125.272 190.226C125.203 190.083 125.094 189.963 124.957 189.878C122.502 188.37 118.76 182.142 115.929 176.047C114.767 173.532 114.354 170.747 114.74 168.013C115.125 165.278 116.293 162.707 118.108 160.594C121.42 156.726 125.765 151.327 130.705 145.59C131.738 144.381 133.175 145.561 133.719 146.871C140.936 164.556 150.325 177.887 156.797 181.562C161.49 184.398 166.63 184.908 168.94 183.124C175.308 178.209 170.259 169.73 167.952 166.505ZM89.817 150.046C82.076 150.503 83.84 140.656 78.1537 140.897C72.0624 141.163 73.8878 148.672 69.8022 149.129C65.7167 149.586 66.1934 138.103 69.0612 136.77C73.579 134.677 78.87 134.174 83.106 134.319C88.125 134.488 92.92 134.297 95.17 139.021C97.835 144.594 97.556 149.601 89.817 150.046ZM138.772 79.6782C128.48 85.6643 127.874 88.6234 126.4 99.15C126.074 101.463 125.743 104.171 126.825 105.702C129.268 109.156 133.914 111.714 132.639 117.548C129.601 131.432 121.59 147.71 110.845 152.797C109.551 153.409 108.069 152.171 107.768 150.797C106.57 145.295 103.719 135.291 102.949 132.025C99.122 113.315 80.8881 113.056 80.3768 116.634C80.2261 117.698 84.07 119.1 86.51 119.878C88.75 120.604 88.827 123.732 86.596 124.472C86.011 124.654 85.402 124.75 84.788 124.757C80.2804 124.455 74.5621 124.798 71.9833 124.982C71.1202 125.045 70.2639 124.792 69.5816 124.271C68.8993 123.749 68.4399 122.998 68.293 122.163C67.2852 116.436 69.0662 114.383 71.2201 108.944C72.2921 106.236 73.668 100.777 74.1447 97.977C74.3917 96.476 74.2855 94.672 74.1249 93.3209C73.9299 91.7231 73.8531 90.1136 73.8952 88.505C74.0483 83.3143 74.5745 79.0762 78.6131 79.0762C85.888 79.0762 101.281 79.098 103.719 75.5973C106.276 71.9321 92.008 75.486 76.6765 75.0025C76.3767 74.9927 76.0907 74.8764 75.8721 74.6753C75.6534 74.4742 75.5171 74.2021 75.4884 73.9098C75.4884 73.8179 75.4711 73.7284 75.4613 73.6366C75.4381 73.3746 75.4705 73.1108 75.5562 72.8616C75.642 72.6124 75.7793 72.3832 75.9597 72.1883C76.14 71.9934 76.3595 71.837 76.6044 71.7288C76.8493 71.6207 77.1144 71.5632 77.383 71.5598C85.571 71.4607 91.801 70.9047 93.439 68.5692C95.104 66.1806 86.829 67.2515 77.4497 67.3361C76.2492 67.3361 75.2562 67.3192 75.318 66.1467V66.1081C75.3432 65.6428 75.5424 65.2028 75.8776 64.872C76.2129 64.5412 76.6608 64.3426 77.136 64.3142C82.654 63.9588 85.006 63.5478 85.238 61.8216C85.47 60.0954 84.67 60.2695 78.5686 60.6128C77.2422 60.6854 77.6226 59.7014 78.376 58.6255C80.2804 55.8815 88.795 47.9662 107.634 48.544C139.909 49.5498 138.889 71.9225 139.877 77.3573C139.956 77.8082 139.893 78.2722 139.696 78.687C139.499 79.1019 139.176 79.4477 138.772 79.6782Z" fill="#FF4642"/>
<path d="M309.609 161.984C308.484 161.984 306.82 161.469 304.617 160.438C302.414 159.453 300.047 158.305 297.516 156.992C295.031 155.68 292.734 154.508 290.625 153.477C288.562 152.492 287.062 152 286.125 152C283.312 152.844 280.312 153.266 277.125 153.266C271.5 153.266 266.227 151.766 261.305 148.766C256.43 145.719 252.492 141.289 249.492 135.477C246.492 129.617 244.992 122.469 244.992 114.031C244.992 105.594 246.586 98.375 249.773 92.375C253.008 86.375 257.18 81.7812 262.289 78.5938C267.398 75.3594 272.789 73.7422 278.461 73.7422C284.133 73.7422 289.406 75.2656 294.281 78.3125C299.203 81.3125 303.164 85.7422 306.164 91.6016C309.164 97.4141 310.664 104.539 310.664 112.977C310.664 119.867 309.539 126.312 307.289 132.312C305.039 138.312 301.594 143.047 296.953 146.516C300.234 148.531 303.445 150.242 306.586 151.648C309.773 153.008 313.148 153.898 316.711 154.32C316.289 154.93 315.703 155.844 314.953 157.062C314.203 158.328 313.359 159.453 312.422 160.438C311.484 161.469 310.547 161.984 309.609 161.984ZM277.969 144.125C284.391 144.125 289.711 141.5 293.93 136.25C298.195 130.953 300.328 123.641 300.328 114.312C300.328 104.562 298.266 96.8984 294.141 91.3203C290.062 85.7422 284.672 82.9531 277.969 82.9531C271.312 82.9531 265.852 85.6484 261.586 91.0391C257.367 96.3828 255.258 103.625 255.258 112.766C255.258 122.375 257.32 130.016 261.445 135.688C265.617 141.312 271.125 144.125 277.969 144.125ZM327.75 152C327.75 152 327.75 151.062 327.75 149.188C327.75 147.266 327.75 144.828 327.75 141.875C327.75 138.922 327.75 135.852 327.75 132.664C327.75 129.477 327.75 126.617 327.75 124.086C327.75 118.93 327.703 114.031 327.609 109.391C327.562 104.703 327.352 100.977 326.977 98.2109H337.523V126.969C337.523 129.219 337.547 131.961 337.594 135.195C337.688 138.383 337.805 141.523 337.945 144.617C338.133 147.664 338.344 150.125 338.578 152H327.75ZM332.531 88.2266C330.562 88.2266 328.969 87.5234 327.75 86.1172C326.531 84.7109 325.922 83.0469 325.922 81.125C325.922 79.1562 326.531 77.4688 327.75 76.0625C328.969 74.6562 330.562 73.9531 332.531 73.9531C334.5 73.9531 336.117 74.6562 337.383 76.0625C338.695 77.4688 339.352 79.1562 339.352 81.125C339.352 83.0469 338.695 84.7109 337.383 86.1172C336.117 87.5234 334.5 88.2266 332.531 88.2266ZM378.938 152.492C377.25 152.492 375.117 152.469 372.539 152.422C370.008 152.375 367.477 152.305 364.945 152.211C362.414 152.164 360.281 152.117 358.547 152.07C356.859 152.023 356.016 152 356.016 152C356.391 149.891 356.602 146.68 356.648 142.367C356.695 138.055 356.742 133.273 356.789 128.023V99.2656C356.789 94.1094 356.742 89.3047 356.648 84.8516C356.602 80.3984 356.391 77.1172 356.016 75.0078C357.516 74.9141 359.695 74.8438 362.555 74.7969C365.461 74.7031 368.508 74.6328 371.695 74.5859C374.883 74.5391 377.648 74.5156 379.992 74.5156C382.242 74.5156 384.938 74.7734 388.078 75.2891C391.219 75.7578 394.453 76.7188 397.781 78.1719C401.156 79.5781 404.273 81.7109 407.133 84.5703C410.039 87.3828 412.383 91.1094 414.164 95.75C415.992 100.344 416.906 106.086 416.906 112.977C416.906 120.852 415.664 127.344 413.18 132.453C410.742 137.562 407.578 141.594 403.688 144.547C399.844 147.453 395.719 149.516 391.312 150.734C386.953 151.906 382.828 152.492 378.938 152.492ZM378.375 143.844C383.109 143.844 387.633 142.883 391.945 140.961C396.258 138.992 399.773 135.828 402.492 131.469C405.258 127.062 406.641 121.25 406.641 114.031C406.641 106.156 405.352 99.9688 402.773 95.4688C400.242 90.9219 396.844 87.7109 392.578 85.8359C388.359 83.9141 383.719 82.9531 378.656 82.9531C376.922 82.9531 374.836 82.9766 372.398 83.0234C370.008 83.0703 368.133 83.1406 366.773 83.2344V143.352C368.039 143.445 369.656 143.562 371.625 143.703C373.641 143.797 375.891 143.844 378.375 143.844ZM445.383 153.266C440.414 153.266 436.312 151.789 433.078 148.836C429.844 145.883 428.227 142.461 428.227 138.57C428.227 135.898 428.836 133.227 430.055 130.555C431.32 127.883 433.477 125.562 436.523 123.594C439.617 121.625 443.883 120.383 449.32 119.867C450.539 119.727 452.133 119.562 454.102 119.375C456.07 119.188 457.945 119.023 459.727 118.883C461.555 118.695 462.82 118.578 463.523 118.531V114.594C463.523 111.406 462.398 109.109 460.148 107.703C457.945 106.297 454.852 105.594 450.867 105.594C448.102 105.594 445.312 106.156 442.5 107.281C439.734 108.406 436.828 110.047 433.781 112.203C433.781 111.031 433.828 109.32 433.922 107.07C434.016 104.773 434.133 103.062 434.273 101.938C436.992 100.766 439.828 99.6875 442.781 98.7031C445.781 97.6719 449.273 97.1562 453.258 97.1562C459.352 97.1562 464.203 98.5859 467.812 101.445C471.469 104.258 473.297 107.75 473.297 111.922V132.523C473.297 136.32 473.648 139.789 474.352 142.93C475.102 146.023 476.062 149.047 477.234 152H467.742C467.414 151.156 466.992 150.008 466.477 148.555C465.961 147.102 465.516 145.531 465.141 143.844C462 147.172 458.742 149.586 455.367 151.086C451.992 152.539 448.664 153.266 445.383 153.266ZM446.93 144.617C449.648 144.617 452.297 144.055 454.875 142.93C457.5 141.805 460.383 139.133 463.523 134.914V125.914C462.68 125.961 461.367 126.078 459.586 126.266C457.852 126.406 456.07 126.57 454.242 126.758C452.414 126.945 450.938 127.109 449.812 127.25C445.359 127.766 442.219 128.961 440.391 130.836C438.609 132.664 437.719 134.797 437.719 137.234C437.719 139.578 438.539 141.406 440.18 142.719C441.82 143.984 444.07 144.617 446.93 144.617ZM511.828 153.266C504.609 153.266 498.703 150.898 494.109 146.164C489.562 141.383 487.289 134.469 487.289 125.422C487.289 119.375 488.461 114.242 490.805 110.023C493.148 105.805 496.242 102.617 500.086 100.461C503.977 98.2578 508.242 97.1562 512.883 97.1562C520.148 97.1562 526.031 99.5938 530.531 104.469C535.078 109.344 537.352 116.328 537.352 125.422C537.352 131.469 536.18 136.555 533.836 140.68C531.539 144.805 528.445 147.945 524.555 150.102C520.711 152.211 516.469 153.266 511.828 153.266ZM512.32 144.898C516.586 144.898 520.195 143.188 523.148 139.766C526.148 136.297 527.648 131.516 527.648 125.422C527.648 119.234 526.219 114.383 523.359 110.867C520.547 107.352 516.867 105.594 512.32 105.594C508.055 105.594 504.445 107.352 501.492 110.867C498.539 114.383 497.062 119.234 497.062 125.422C497.062 131.516 498.469 136.297 501.281 139.766C504.094 143.188 507.773 144.898 512.32 144.898Z" fill="#FF4642"/>
</svg>
