<svg width="525" height="233" viewBox="0 0 525 233" fill="none" xmlns="http://www.w3.org/2000/svg">
<path d="M154.597 76.702C154.843 91.0582 151.456 104.199 144.466 116.138C137.476 128.078 127.939 137.369 115.884 143.997C103.829 150.625 90.6737 153.824 76.4476 153.577C61.8598 153.824 48.5889 150.321 36.6495 143.085C24.7101 135.849 15.5782 126.413 9.23943 114.778C2.90067 103.142 -0.138457 90.8122 0.107568 77.7874C-0.138457 64.4007 3.20459 51.7956 10.1512 39.9864C17.0833 28.1627 26.548 18.7993 38.5453 11.8527C50.5427 4.92059 63.4228 1.57755 77.1712 1.8091C98.5175 1.56308 116.854 8.59649 132.165 22.8804C147.476 37.1788 154.958 55.1097 154.597 76.702ZM23.9864 72.9103C23.7404 90.3925 29.1095 105.689 40.0794 118.772C51.0492 131.855 64.624 138.223 80.7748 137.861C95.3626 137.861 107.374 132.492 116.781 121.768C126.188 111.03 130.891 97.8311 130.891 82.1434C131.007 70.9276 128.475 60.2907 123.294 50.2181C118.113 40.1456 110.963 32.128 101.861 26.1656C92.7576 20.2031 83.0758 17.3376 72.8296 17.5692C59.1969 17.5692 47.6482 22.7502 38.1835 33.1266C28.7188 43.5031 23.9864 56.7595 23.9864 72.9248V72.9103Z" fill="white"/>
<path d="M302.646 151.233V151.783H266.639C267.001 150.582 267.189 148.946 267.189 146.891C267.189 140.379 264.715 131.754 259.78 121.015L252.717 104.734H197.174L189.214 121.551C184.149 132.043 181.616 140.48 181.616 146.877C181.616 147.962 181.732 149.598 181.978 151.768H146.521V151.218C153.15 143.143 160.212 131.739 167.679 117.035L226.668 0H227.217L282.211 117.585C287.754 129.887 294.57 141.102 302.646 151.233ZM225.944 43.9661L205.321 87.744H245.119L225.944 43.9661Z" fill="white"/>
<path d="M329.289 109.264V19.1754C311.561 19.1754 295.945 22.4895 282.428 29.1321L282.067 28.7703L289.476 3.61792H400.187L390.057 27.135C379.087 21.8238 366.004 19.1754 350.809 19.1754V109.264C350.809 125.545 352.734 139.713 356.598 151.783H323.486C327.35 140.321 329.274 126.153 329.274 109.264H329.289Z" fill="white"/>
<path d="M519.162 46.1224V109.249C519.162 125.531 521.087 139.699 524.951 151.768H491.839C495.703 139.713 497.628 125.545 497.628 109.249V86.2679H432.33V109.249C432.33 125.531 434.255 139.699 438.119 151.768H405.007C408.871 139.713 410.795 125.545 410.795 109.249V46.1224C410.795 29.8413 408.871 15.6732 405.007 3.60352H438.119C434.255 15.6587 432.33 29.8269 432.33 46.1224V68.7277H497.628V46.1224C497.628 29.8413 495.703 15.6732 491.839 3.60352H524.951C521.087 15.6587 519.162 29.8269 519.162 46.1224Z" fill="white"/>
<path d="M47.7713 116.53L101.99 77.8855C104.996 90.556 103.711 100.523 93.1538 106.97C91.0704 108.241 88.8462 108.908 86.6119 109.167C86.6119 109.167 83.0984 100.652 81.7828 100.586L79.7127 100.492C79.3797 100.48 79.119 100.782 79.1748 101.113L79.7643 104.178C80.0144 105.489 79.848 106.841 79.2978 108.054C78.6186 109.541 77.211 110.547 75.5889 110.713L71.0032 111.175C70.5527 111.216 70.141 110.911 70.0787 110.454L69.836 108.898L68.2884 110.143C66.6509 111.46 65.3558 113.163 64.5078 115.092C64.2123 115.765 64.5341 116.548 65.2132 116.823C73.7721 120.327 87.4025 121.486 96.9099 115.683C114.724 104.81 116.791 87.9891 111.647 66.5615L109.804 58.5678L45.3457 106.035L47.7784 116.544L47.7713 116.53Z" fill="white"/>
<path d="M105.362 39.3296L51.1433 77.9743C48.1369 65.3038 49.4219 55.3372 59.9792 48.89C62.0626 47.6189 64.2867 46.952 66.5211 46.6924C66.5211 46.6924 70.0346 55.2079 71.3502 55.2734L73.4203 55.3676C73.7533 55.3796 74.014 55.0777 73.9581 54.7463L73.3687 51.6816C73.1185 50.3705 73.285 49.0184 73.8352 47.8061C74.5144 46.319 75.9219 45.3127 77.5441 45.1464L82.1297 44.6853C82.5802 44.6434 82.9919 44.9489 83.0543 45.4057L83.297 46.9614L84.8446 45.7173C86.4821 44.3997 87.7771 42.6968 88.6251 40.7674C88.9207 40.0945 88.5989 39.3115 87.9197 39.0365C79.3608 35.5331 65.7304 34.3738 56.2231 40.1768C38.409 51.0498 36.3416 67.8707 41.4857 89.2983L43.3292 97.2921L107.794 49.8381L105.362 39.3296Z" fill="white"/>
<path d="M31.1267 217.127V194.522C31.1267 188.693 30.4304 183.619 29.0378 179.301H58.6075L54.4952 187.203C51.3185 185.433 46.1182 184.548 38.8944 184.548V203.201H56.9104L52.9939 210.974C49.9477 209.376 45.2479 208.577 38.8944 208.577V217.127C38.8944 222.956 39.5907 228.03 40.9832 232.348H29.0378C30.4304 228.03 31.1267 222.956 31.1267 217.127Z" fill="white"/>
<path d="M118.099 205.468C118.186 210.607 116.967 215.313 114.443 219.588C111.919 223.863 108.482 227.188 104.13 229.563C99.7782 231.937 95.0349 233.082 89.8999 232.995C84.6343 233.082 79.8475 231.829 75.5393 229.239C71.2312 226.648 67.9239 223.28 65.6175 219.135C63.3546 214.946 62.2667 210.52 62.3537 205.857C62.2667 201.064 63.4634 196.552 65.9439 192.32C68.4678 188.089 71.8839 184.742 76.1921 182.281C80.5438 179.776 85.2001 178.567 90.161 178.654C97.8635 178.567 104.478 181.093 110.005 186.232C115.531 191.327 118.229 197.739 118.099 205.468ZM70.9701 204.108C70.883 210.369 72.8195 215.853 76.7796 220.56C80.7396 225.223 85.6352 227.49 91.4665 227.36C96.732 227.36 101.062 225.439 104.456 221.596C107.851 217.753 109.548 213.025 109.548 207.411C109.591 203.396 108.677 199.596 106.806 196.012C104.935 192.385 102.346 189.513 99.0384 187.398C95.7747 185.239 92.2933 184.202 88.5944 184.289C83.677 184.289 79.4994 186.145 76.0615 189.859C72.6672 193.572 70.9701 198.322 70.9701 204.108Z" fill="white"/>
<path d="M126.86 212.528V194.522C126.86 188.693 126.164 183.619 124.771 179.301H136.717C135.324 183.619 134.628 188.693 134.628 194.522V212.593C134.628 217.04 135.629 220.43 137.63 222.762C139.632 225.093 142.417 226.259 145.986 226.259C149.293 226.259 152.143 225.093 154.537 222.762C156.974 220.43 158.192 217.472 158.192 213.888V194.522C158.192 188.693 157.496 183.619 156.103 179.301H168.049C166.656 183.619 165.96 188.693 165.96 194.522V217.127C165.96 222.956 166.656 228.03 168.049 232.348H157.996C158.301 231.311 158.453 229.541 158.453 227.037C152.927 230.88 147.748 232.801 142.918 232.801C137.696 232.801 133.714 231.074 130.972 227.619C128.231 224.165 126.86 219.135 126.86 212.528Z" fill="white"/>
<path d="M224.531 196.595V215.054C224.531 222.265 225.01 228.03 225.967 232.348H216.111C215.414 230.361 213.957 228.008 211.737 225.288L187.324 194.587V215.054C187.324 219.07 187.477 222.265 187.781 224.64C188.129 227.231 188.673 229.8 189.413 232.348H177.468C178.207 229.843 178.751 227.252 179.1 224.575C179.404 222.2 179.556 219.027 179.556 215.054V186.491C177.555 183.986 175.335 181.676 172.898 179.561V179.301H186.084C186.737 180.813 187.433 182.13 188.173 183.252C189.087 184.634 190.392 186.361 192.089 188.434L216.763 219.459V196.595C216.763 192.622 216.611 189.449 216.306 187.074C215.958 184.397 215.414 181.806 214.675 179.301H226.62C225.88 181.849 225.336 184.418 224.988 187.009C224.683 189.384 224.531 192.579 224.531 196.595Z" fill="white"/>
<path d="M236.833 217.127V194.522C236.833 191.327 236.637 188.607 236.245 186.361C235.941 184.202 235.31 181.871 234.352 179.366C237.355 179.064 240.271 178.913 243.099 178.913C254.022 178.913 262.508 181.309 268.557 186.102C274.606 190.852 277.63 197.286 277.63 205.404C277.717 210.844 276.346 215.637 273.518 219.782C270.733 223.928 266.903 227.08 262.029 229.239C257.155 231.355 251.672 232.391 245.58 232.348H234.744C236.137 228.03 236.833 222.956 236.833 217.127ZM268.622 206.051C268.622 199.661 266.49 194.479 262.225 190.507C257.96 186.534 252.216 184.397 244.992 184.094C244.731 186.642 244.601 189.816 244.601 193.616V216.868C244.601 220.883 244.775 224.316 245.123 227.166C252.303 226.864 258.026 224.921 262.29 221.337C266.511 217.796 268.622 212.701 268.622 206.051Z" fill="white"/>
<path d="M334.032 232.153V232.348H321.043C321.173 231.916 321.238 231.333 321.238 230.599C321.238 228.267 320.346 225.18 318.562 221.337L316.016 215.508H295.977L293.105 221.531C291.277 225.288 290.363 228.31 290.363 230.599C290.363 230.987 290.407 231.57 290.494 232.348H277.7V232.153C280.093 229.26 282.639 225.18 285.337 219.912L306.617 178.006H306.813L326.656 220.106C328.658 224.511 331.117 228.526 334.032 232.153ZM306.356 193.745L298.914 209.419H313.275L306.356 193.745Z" fill="white"/>
<path d="M342.567 217.127V184.872C336.17 184.872 330.535 186.059 325.661 188.434L325.53 188.304L328.207 179.301H368.155L364.5 187.722C360.54 185.822 355.818 184.872 350.335 184.872V217.127C350.335 222.956 351.031 228.03 352.424 232.348H340.478C341.871 228.246 342.567 223.172 342.567 217.127Z" fill="white"/>
<path d="M373.376 217.127V194.522C373.376 188.693 372.679 183.619 371.287 179.301H383.232C381.84 183.619 381.143 188.693 381.143 194.522V217.127C381.143 222.956 381.84 228.03 383.232 232.348H371.287C372.679 228.03 373.376 222.956 373.376 217.127Z" fill="white"/>
<path d="M446.069 205.468C446.156 210.607 444.937 215.313 442.413 219.588C439.889 223.863 436.452 227.188 432.1 229.563C427.748 231.937 423.005 233.082 417.87 232.995C412.604 233.082 407.817 231.829 403.509 229.239C399.201 226.648 395.894 223.28 393.587 219.135C391.325 214.946 390.237 210.52 390.324 205.857C390.237 201.064 391.433 196.552 393.914 192.32C396.438 188.089 399.854 184.742 404.162 182.281C408.514 179.776 413.17 178.567 418.131 178.654C425.833 178.567 432.448 181.093 437.975 186.232C443.501 191.327 446.199 197.739 446.069 205.468ZM398.94 204.108C398.853 210.369 400.789 215.853 404.749 220.56C408.71 225.223 413.605 227.49 419.436 227.36C424.702 227.36 429.032 225.439 432.426 221.596C435.821 217.753 437.518 213.025 437.518 207.411C437.561 203.396 436.647 199.596 434.776 196.012C432.905 192.385 430.316 189.513 427.008 187.398C423.745 185.239 420.263 184.202 416.564 184.289C411.647 184.289 407.469 186.145 404.031 189.859C400.637 193.572 398.94 198.322 398.94 204.108Z" fill="white"/>
<path d="M501.632 196.595V215.054C501.632 222.265 502.111 228.03 503.068 232.348H493.212C492.516 230.361 491.058 228.008 488.838 225.288L464.425 194.587V215.054C464.425 219.07 464.578 222.265 464.882 224.64C465.23 227.231 465.774 229.8 466.514 232.348H454.569C455.309 229.843 455.853 227.252 456.201 224.575C456.505 222.2 456.658 219.027 456.658 215.054V186.491C454.656 183.986 452.436 181.676 450 179.561V179.301H463.185C463.838 180.813 464.534 182.13 465.274 183.252C466.188 184.634 467.493 186.361 469.19 188.434L493.864 219.459V196.595C493.864 192.622 493.712 189.449 493.408 187.074C493.059 184.397 492.516 181.806 491.776 179.301H503.721C502.981 181.849 502.437 184.418 502.089 187.009C501.785 189.384 501.632 192.579 501.632 196.595Z" fill="white"/>
</svg>
