<svg width="525" height="233" viewBox="0 0 525 233" fill="none" xmlns="http://www.w3.org/2000/svg">
<path d="M154.503 76.702C154.749 91.0582 151.363 104.199 144.373 116.138C137.383 128.078 127.845 137.369 115.79 143.997C103.735 150.625 90.5799 153.824 76.3539 153.577C61.7661 153.824 48.4952 150.321 36.5557 143.085C24.6163 135.849 15.4844 126.413 9.14568 114.778C2.80692 103.142 -0.232207 90.8122 0.0138178 77.7874C-0.232207 64.4007 3.11084 51.7956 10.0574 39.9864C16.9895 28.1627 26.4542 18.7993 38.4516 11.8527C50.4489 4.92059 63.329 1.57755 77.0775 1.8091C98.4238 1.56308 116.76 8.59649 132.071 22.8804C147.383 37.1788 154.865 55.1097 154.503 76.702ZM23.8927 72.9103C23.6467 90.3925 29.0158 105.689 39.9856 118.772C50.9554 131.855 64.5302 138.223 80.681 137.861C95.2689 137.861 107.281 132.492 116.687 121.768C126.094 111.03 130.798 97.8311 130.798 82.1434C130.913 70.9276 128.381 60.2907 123.2 50.2181C118.019 40.1456 110.87 32.128 101.767 26.1656C92.6639 20.2031 82.9821 17.3376 72.7359 17.5692C59.1032 17.5692 47.5545 22.7502 38.0898 33.1266C28.6251 43.5031 23.8927 56.7595 23.8927 72.9248V72.9103Z" fill="black"/>
<path d="M302.552 151.233V151.783H266.546C266.907 150.582 267.095 148.946 267.095 146.891C267.095 140.379 264.621 131.754 259.686 121.015L252.623 104.734H197.08L189.12 121.551C184.055 132.043 181.522 140.48 181.522 146.877C181.522 147.962 181.638 149.598 181.884 151.768H146.428V151.218C153.056 143.143 160.118 131.739 167.586 117.035L226.574 0H227.124L282.117 117.585C287.66 129.887 294.477 141.102 302.552 151.233ZM225.85 43.9661L205.227 87.744H245.026L225.85 43.9661Z" fill="black"/>
<path d="M329.195 109.264V19.1754C311.467 19.1754 295.851 22.4895 282.335 29.1321L281.973 28.7703L289.382 3.61792H400.094L389.963 27.135C378.993 21.8238 365.911 19.1754 350.715 19.1754V109.264C350.715 125.545 352.64 139.713 356.504 151.783H323.392C327.256 140.321 329.181 126.153 329.181 109.264H329.195Z" fill="black"/>
<path d="M519.068 46.1224V109.249C519.068 125.531 520.993 139.699 524.857 151.768H491.745C495.609 139.713 497.534 125.545 497.534 109.249V86.2679H432.236V109.249C432.236 125.531 434.161 139.699 438.025 151.768H404.913C408.777 139.713 410.702 125.545 410.702 109.249V46.1224C410.702 29.8413 408.777 15.6732 404.913 3.60352H438.025C434.161 15.6587 432.236 29.8269 432.236 46.1224V68.7277H497.534V46.1224C497.534 29.8413 495.609 15.6732 491.745 3.60352H524.857C520.993 15.6587 519.068 29.8269 519.068 46.1224Z" fill="black"/>
<path d="M47.6776 116.53L101.896 77.8855C104.902 90.556 103.617 100.523 93.0601 106.97C90.9767 108.241 88.7525 108.908 86.5181 109.167C86.5181 109.167 83.0047 100.652 81.6891 100.586L79.619 100.492C79.2859 100.48 79.0253 100.782 79.0811 101.113L79.6706 104.178C79.9207 105.489 79.7543 106.841 79.204 108.054C78.5249 109.541 77.1173 110.547 75.4951 110.713L70.9095 111.175C70.459 111.216 70.0473 110.911 69.985 110.454L69.7423 108.898L68.1946 110.143C66.5572 111.46 65.2621 113.163 64.4141 115.092C64.1186 115.765 64.4404 116.548 65.1195 116.823C73.6784 120.327 87.3088 121.486 96.8161 115.683C114.63 104.81 116.698 87.9891 111.554 66.5615L109.71 58.5678L45.2519 106.035L47.6847 116.544L47.6776 116.53Z" fill="black"/>
<path d="M105.268 39.3296L51.0496 77.9743C48.0432 65.3038 49.3282 55.3372 59.8855 48.89C61.9689 47.6189 64.193 46.952 66.4274 46.6924C66.4274 46.6924 69.9409 55.2079 71.2565 55.2734L73.3265 55.3676C73.6596 55.3796 73.9202 55.0777 73.8644 54.7463L73.2749 51.6816C73.0248 50.3705 73.1913 49.0184 73.7415 47.8061C74.4206 46.319 75.8282 45.3127 77.4504 45.1464L82.036 44.6853C82.4865 44.6434 82.8982 44.9489 82.9606 45.4057L83.2032 46.9614L84.7509 45.7173C86.3883 44.3997 87.6834 42.6968 88.5314 40.7674C88.8269 40.0945 88.5051 39.3115 87.826 39.0365C79.2671 35.5331 65.6367 34.3738 56.1294 40.1768C38.3152 51.0498 36.2479 67.8707 41.3919 89.2983L43.2355 97.2921L107.701 49.8381L105.268 39.3296Z" fill="black"/>
<path d="M31.0329 217.127V194.522C31.0329 188.693 30.3366 183.619 28.9441 179.301H58.5138L54.4014 187.203C51.2247 185.433 46.0245 184.548 38.8007 184.548V203.201H56.8166L52.9001 210.974C49.8539 209.376 45.1541 208.577 38.8007 208.577V217.127C38.8007 222.956 39.4969 228.03 40.8895 232.348H28.9441C30.3366 228.03 31.0329 222.956 31.0329 217.127Z" fill="black"/>
<path d="M118.005 205.468C118.092 210.607 116.874 215.313 114.35 219.588C111.826 223.863 108.388 227.188 104.036 229.563C99.6845 231.937 94.9411 233.082 89.8061 232.995C84.5406 233.082 79.7537 231.829 75.4456 229.239C71.1374 226.648 67.8301 223.28 65.5237 219.135C63.2609 214.946 62.1729 210.52 62.26 205.857C62.1729 201.064 63.3697 196.552 65.8501 192.32C68.3741 188.089 71.7902 184.742 76.0983 182.281C80.45 179.776 85.1063 178.567 90.0672 178.654C97.7697 178.567 104.384 181.093 109.911 186.232C115.438 191.327 118.136 197.739 118.005 205.468ZM70.8763 204.108C70.7893 210.369 72.7258 215.853 76.6858 220.56C80.6458 225.223 85.5415 227.49 91.3727 227.36C96.6383 227.36 100.968 225.439 104.363 221.596C107.757 217.753 109.454 213.025 109.454 207.411C109.498 203.396 108.584 199.596 106.712 196.012C104.841 192.385 102.252 189.513 98.9447 187.398C95.6809 185.239 92.1996 184.202 88.5006 184.289C83.5832 184.289 79.4056 186.145 75.9678 189.859C72.5735 193.572 70.8763 198.322 70.8763 204.108Z" fill="black"/>
<path d="M126.766 212.528V194.522C126.766 188.693 126.07 183.619 124.677 179.301H136.623C135.23 183.619 134.534 188.693 134.534 194.522V212.593C134.534 217.04 135.535 220.43 137.537 222.762C139.538 225.093 142.323 226.259 145.892 226.259C149.199 226.259 152.049 225.093 154.443 222.762C156.88 220.43 158.098 217.472 158.098 213.888V194.522C158.098 188.693 157.402 183.619 156.01 179.301H167.955C166.562 183.619 165.866 188.693 165.866 194.522V217.127C165.866 222.956 166.562 228.03 167.955 232.348H157.902C158.207 231.311 158.359 229.541 158.359 227.037C152.833 230.88 147.654 232.801 142.824 232.801C137.602 232.801 133.62 231.074 130.879 227.619C128.137 224.165 126.766 219.135 126.766 212.528Z" fill="black"/>
<path d="M224.437 196.595V215.054C224.437 222.265 224.916 228.03 225.873 232.348H216.017C215.321 230.361 213.863 228.008 211.643 225.288L187.23 194.587V215.054C187.23 219.07 187.383 222.265 187.687 224.64C188.036 227.231 188.579 229.8 189.319 232.348H177.374C178.114 229.843 178.658 227.252 179.006 224.575C179.31 222.2 179.463 219.027 179.463 215.054V186.491C177.461 183.986 175.242 181.676 172.805 179.561V179.301H185.99C186.643 180.813 187.339 182.13 188.079 183.252C188.993 184.634 190.298 186.361 191.996 188.434L216.67 219.459V196.595C216.67 192.622 216.517 189.449 216.213 187.074C215.865 184.397 215.321 181.806 214.581 179.301H226.526C225.786 181.849 225.242 184.418 224.894 187.009C224.59 189.384 224.437 192.579 224.437 196.595Z" fill="black"/>
<path d="M236.739 217.127V194.522C236.739 191.327 236.543 188.607 236.152 186.361C235.847 184.202 235.216 181.871 234.259 179.366C237.261 179.064 240.177 178.913 243.006 178.913C253.928 178.913 262.414 181.309 268.463 186.102C274.512 190.852 277.536 197.286 277.536 205.404C277.623 210.844 276.253 215.637 273.424 219.782C270.639 223.928 266.809 227.08 261.935 229.239C257.062 231.355 251.578 232.391 245.486 232.348H234.65C236.043 228.03 236.739 222.956 236.739 217.127ZM268.528 206.051C268.528 199.661 266.396 194.479 262.131 190.507C257.867 186.534 252.122 184.397 244.899 184.094C244.638 186.642 244.507 189.816 244.507 193.616V216.868C244.507 220.883 244.681 224.316 245.029 227.166C252.209 226.864 257.932 224.921 262.197 221.337C266.418 217.796 268.528 212.701 268.528 206.051Z" fill="black"/>
<path d="M333.939 232.153V232.348H320.949C321.079 231.916 321.145 231.333 321.145 230.599C321.145 228.267 320.253 225.18 318.468 221.337L315.923 215.508H295.883L293.011 221.531C291.183 225.288 290.27 228.31 290.27 230.599C290.27 230.987 290.313 231.57 290.4 232.348H277.606V232.153C280 229.26 282.545 225.18 285.243 219.912L306.523 178.006H306.719L326.563 220.106C328.564 224.511 331.023 228.526 333.939 232.153ZM306.262 193.745L298.821 209.419H313.181L306.262 193.745Z" fill="black"/>
<path d="M342.473 217.127V184.872C336.076 184.872 330.441 186.059 325.567 188.434L325.437 188.304L328.113 179.301H368.061L364.406 187.722C360.446 185.822 355.724 184.872 350.241 184.872V217.127C350.241 222.956 350.937 228.03 352.33 232.348H340.385C341.777 228.246 342.473 223.172 342.473 217.127Z" fill="black"/>
<path d="M373.282 217.127V194.522C373.282 188.693 372.586 183.619 371.193 179.301H383.138C381.746 183.619 381.05 188.693 381.05 194.522V217.127C381.05 222.956 381.746 228.03 383.138 232.348H371.193C372.586 228.03 373.282 222.956 373.282 217.127Z" fill="black"/>
<path d="M445.975 205.468C446.062 210.607 444.844 215.313 442.32 219.588C439.796 223.863 436.358 227.188 432.006 229.563C427.654 231.937 422.911 233.082 417.776 232.995C412.511 233.082 407.724 231.829 403.416 229.239C399.107 226.648 395.8 223.28 393.494 219.135C391.231 214.946 390.143 210.52 390.23 205.857C390.143 201.064 391.34 196.552 393.82 192.32C396.344 188.089 399.76 184.742 404.068 182.281C408.42 179.776 413.076 178.567 418.037 178.654C425.74 178.567 432.354 181.093 437.881 186.232C443.407 191.327 446.106 197.739 445.975 205.468ZM398.846 204.108C398.759 210.369 400.696 215.853 404.656 220.56C408.616 225.223 413.511 227.49 419.343 227.36C424.608 227.36 428.938 225.439 432.332 221.596C435.727 217.753 437.424 213.025 437.424 207.411C437.467 203.396 436.554 199.596 434.682 196.012C432.811 192.385 430.222 189.513 426.915 187.398C423.651 185.239 420.17 184.202 416.471 184.289C411.553 184.289 407.376 186.145 403.938 189.859C400.543 193.572 398.846 198.322 398.846 204.108Z" fill="black"/>
<path d="M501.538 196.595V215.054C501.538 222.265 502.017 228.03 502.975 232.348H493.118C492.422 230.361 490.964 228.008 488.745 225.288L464.332 194.587V215.054C464.332 219.07 464.484 222.265 464.789 224.64C465.137 227.231 465.681 229.8 466.42 232.348H454.475C455.215 229.843 455.759 227.252 456.107 224.575C456.412 222.2 456.564 219.027 456.564 215.054V186.491C454.562 183.986 452.343 181.676 449.906 179.561V179.301H463.091C463.744 180.813 464.44 182.13 465.18 183.252C466.094 184.634 467.4 186.361 469.097 188.434L493.771 219.459V196.595C493.771 192.622 493.618 189.449 493.314 187.074C492.966 184.397 492.422 181.806 491.682 179.301H503.627C502.888 181.849 502.344 184.418 501.995 187.009C501.691 189.384 501.538 192.579 501.538 196.595Z" fill="black"/>
</svg>
