<svg xmlns:xlink="http://www.w3.org/1999/xlink" width="499.846" xmlns="http://www.w3.org/2000/svg" height="155.52" id="screenshot-cf2f25bd-e7c5-8004-8002-607668c9d358" viewBox="0 0 499.846 155.52" style="-webkit-print-color-adjust: exact;" fill="none" version="1.1"><g id="shape-cf2f25bd-e7c5-8004-8002-607668c9d358" rx="0" ry="0" style="fill: rgb(0, 0, 0);"><g id="shape-cf2f25bd-e7c5-8004-8002-607668ca1efb"><g class="fills" id="fills-cf2f25bd-e7c5-8004-8002-607668ca1efb"><path rx="0" ry="0" d="M450.787,149.436C440.661,149.436,431.697,147.314,423.897,143.072C416.234,138.693,410.213,132.604,405.834,124.803C401.592,116.867,399.470,107.561,399.470,96.887L399.470,94.424C399.470,83.750,401.592,74.513,405.834,66.712C410.076,58.775,416.028,52.686,423.692,48.443C431.355,44.064,440.250,41.875,450.377,41.875C460.367,41.875,469.056,44.133,476.446,48.648C483.836,53.028,489.583,59.186,493.688,67.123C497.794,74.923,499.846,84.023,499.846,94.424L499.846,100.399C499.846,101.974,498.570,103.250,496.996,103.250L428.709,103.250C427.091,103.250,425.780,104.601,426.010,106.203C426.821,111.848,429.332,116.543,433.545,120.288C438.471,124.667,444.493,126.856,451.608,126.856C458.861,126.856,464.198,125.282,467.619,122.135C470.236,119.728,472.372,117.121,474.028,114.313C474.855,112.911,476.627,112.299,478.069,113.055C478.069,113.055,489.179,118.880,494.176,121.500C494.807,121.830,495.273,122.406,495.465,123.092C495.657,123.777,495.558,124.511,495.191,125.121C493.385,128.020,491.038,131.131,488.146,134.451C484.588,138.557,479.798,142.114,473.777,145.125C467.756,147.999,460.093,149.436,450.787,149.436ZZM426.678,80.684C426.193,82.373,427.545,83.955,429.303,83.955L470.444,83.955C472.123,83.955,473.457,82.504,473.092,80.865C472.095,76.395,469.860,72.703,466.388,69.791C462.283,66.233,456.877,64.454,450.172,64.454C443.193,64.454,437.650,66.233,433.545,69.791C430.230,72.664,427.942,76.295,426.678,80.684ZZ" style="fill: rgb(233, 17, 121);"/></g></g><g id="shape-cf2f25bd-e7c5-8004-8002-607668ca1efc"><g class="fills" id="fills-cf2f25bd-e7c5-8004-8002-607668ca1efc"><path rx="0" ry="0" d="M47.596,149.436C34.322,149.436,23.443,146.562,14.958,140.814C7.166,135.536,2.202,128.179,0.066,118.745C-0.261,117.304,0.661,115.899,2.091,115.529L20.456,110.779C22.041,110.369,23.631,111.380,24.074,112.956C25.034,116.376,26.374,119.162,28.096,121.314C30.422,124.051,33.227,126.035,36.512,127.267C39.933,128.361,43.628,128.909,47.596,128.909C53.617,128.909,58.065,127.882,60.939,125.830C63.813,123.640,65.249,120.972,65.249,117.824C65.249,114.677,63.881,112.282,61.144,110.640C58.407,108.861,54.028,107.424,48.007,106.329L42.259,105.303C35.143,103.934,28.643,102.087,22.759,99.761C16.874,97.298,12.153,93.945,8.595,89.702C5.037,85.460,3.258,79.987,3.258,73.281C3.258,63.154,6.953,55.423,14.343,50.085C21.733,44.612,31.448,41.875,43.491,41.875C54.849,41.875,64.292,44.406,71.818,49.469C78.517,53.976,83.157,59.729,85.736,66.729C86.272,68.184,85.414,69.745,83.933,70.200L65.566,75.852C63.963,76.345,62.304,75.345,61.759,73.758C60.510,70.117,58.526,67.426,55.807,65.686C52.523,63.496,48.417,62.401,43.491,62.401C38.564,62.401,34.801,63.291,32.201,65.070C29.601,66.712,28.301,69.038,28.301,72.049C28.301,75.334,29.669,77.797,32.406,79.439C35.143,80.944,38.838,82.108,43.491,82.929L49.238,83.955C56.902,85.323,63.813,87.171,69.970,89.497C76.265,91.687,81.192,94.903,84.750,99.145C88.445,103.250,90.292,108.861,90.292,115.977C90.292,126.651,86.392,134.930,78.592,140.814C70.928,146.562,60.597,149.436,47.596,149.436ZZ" style="fill: rgb(233, 17, 121);"/></g></g><g id="shape-cf2f25bd-e7c5-8004-8002-607668ca1efd"><g class="fills" id="fills-cf2f25bd-e7c5-8004-8002-607668ca1efd"><path rx="0" ry="0" d="M241.773,28.327C245.057,31.338,249.026,32.843,253.678,32.843C258.468,32.843,262.437,31.338,265.584,28.327C268.732,25.316,270.305,21.348,270.305,16.422C270.305,11.495,268.732,7.526,265.584,4.516C262.437,1.505,258.468,0.000,253.678,0.000C249.026,0.000,245.057,1.505,241.773,4.516C238.626,7.526,237.052,11.495,237.052,16.422C237.052,21.348,238.626,25.316,241.773,28.327ZZ" style="fill: rgb(233, 17, 121);"/></g></g><g id="shape-cf2f25bd-e7c5-8004-8002-607668ca1efe"><g class="fills" id="fills-cf2f25bd-e7c5-8004-8002-607668ca1efe"><path rx="0" ry="0" d="M388.112,115.307C388.389,115.387,388.688,115.331,388.919,115.157C389.149,114.983,389.285,114.711,389.285,114.422C389.285,102.420,389.285,5.725,389.285,5.725C389.285,4.150,388.008,2.874,386.434,2.874L366.271,2.874C364.697,2.874,363.421,4.150,363.421,5.725L363.421,56.449L359.726,56.449C358.357,53.986,356.373,51.659,353.773,49.470C351.173,47.280,347.752,45.501,343.510,44.133C339.404,42.627,334.272,41.875,328.115,41.875C319.904,41.875,312.309,43.927,305.330,48.033C298.350,52.001,292.740,57.886,288.498,65.686C284.256,73.486,282.134,82.929,282.134,94.013L282.134,97.298C282.134,99.292,282.203,101.233,282.340,103.120C282.369,103.497,282.560,103.843,282.865,104.067C283.169,104.291,283.556,104.371,283.925,104.286C290.730,102.741,298.117,101.697,306.847,101.497C307.202,101.489,307.538,101.336,307.777,101.074C308.016,100.811,308.137,100.462,308.112,100.108C308.036,98.999,307.998,97.857,307.998,96.682L307.998,94.629C307.998,84.776,310.667,77.318,316.003,72.255C321.340,67.054,327.978,64.454,335.915,64.454C343.989,64.454,350.626,67.054,355.826,72.255C361.162,77.318,363.831,84.776,363.831,94.629L363.831,96.682C363.831,100.414,363.448,103.813,362.682,106.878C362.604,107.179,362.650,107.500,362.809,107.768C362.968,108.035,363.228,108.228,363.530,108.304C370.641,110.088,376.859,111.954,382.156,113.543C384.291,114.184,386.277,114.780,388.112,115.307ZZ" style="fill: rgb(233, 17, 121);"/></g></g><g id="shape-cf2f25bd-e7c5-8004-8002-607668ca1eff"><g class="fills" id="fills-cf2f25bd-e7c5-8004-8002-607668ca1eff"><path rx="0" ry="0" d="M124.454,66.096L149.520,66.096C151.094,66.096,152.371,64.820,152.371,63.246L152.371,47.599C152.371,46.025,151.094,44.748,149.520,44.748L124.454,44.748L124.454,15.988C124.454,14.414,123.177,13.137,121.603,13.137L101.441,13.137C99.933,13.137,98.699,14.308,98.597,15.791L98.597,50.125L98.596,50.125L98.596,79.994C98.596,108.019,104.393,155.520,180.190,155.520C221.776,155.520,242.848,148.217,261.459,141.767C276.178,136.667,289.357,132.099,309.927,132.099C341.890,132.099,366.199,139.392,382.155,144.180L382.156,144.180C383.860,144.691,385.705,144.367,387.132,143.304C388.560,142.243,389.401,140.569,389.401,138.790C389.401,133.750,389.401,127.581,389.401,124.999C389.401,124.273,388.919,123.634,388.221,123.435C386.356,122.900,384.333,122.293,382.155,121.640C366.199,116.853,341.890,109.560,309.927,109.560C289.357,109.560,276.178,114.127,261.459,119.228C242.848,125.678,221.776,132.981,180.190,132.981C121.603,132.981,124.011,92.756,124.296,66.096C124.348,66.096,124.401,66.096,124.454,66.096ZZ" style="fill: rgb(233, 17, 121);"/></g></g><g id="shape-cf2f25bd-e7c5-8004-8002-607668ca1f00"><g class="fills" id="fills-cf2f25bd-e7c5-8004-8002-607668ca1f00"><path rx="0" ry="0" d="M167.045,122.859C167.045,123.506,167.521,124.054,168.162,124.144C171.708,124.628,175.535,124.883,179.664,124.883C183.866,124.883,187.859,124.809,191.660,124.668C192.358,124.642,192.909,124.069,192.909,123.372C192.909,117.031,192.909,88.676,192.909,88.676C192.909,81.423,195.030,76.086,199.273,72.665C203.515,69.107,208.920,67.328,215.488,67.328L225.364,67.328C226.939,67.328,228.215,66.052,228.215,64.477L228.215,47.189C228.215,45.615,226.939,44.338,225.364,44.338L215.899,44.338C211.246,44.338,207.141,45.296,203.583,47.212C200.162,49.128,197.699,52.138,196.194,56.244L192.498,56.244L192.498,47.599C192.498,46.025,191.222,44.748,189.648,44.748L169.896,44.748C168.321,44.748,167.045,46.025,167.045,47.599Z" style="fill: rgb(233, 17, 121);"/></g></g><g id="shape-cf2f25bd-e7c5-8004-8002-607668ca1f01"><g class="fills" id="fills-cf2f25bd-e7c5-8004-8002-607668ca1f01"><path rx="0" ry="0" d="M261.459,111.131C262.895,110.633,264.317,110.140,265.732,109.657C266.257,109.477,266.611,108.983,266.611,108.429C266.611,100.719,266.611,47.599,266.611,47.599C266.611,46.025,265.334,44.748,263.759,44.748L243.597,44.748C242.023,44.748,240.747,46.025,240.747,47.599L240.747,116.027C240.747,116.432,240.937,116.815,241.260,117.060C241.583,117.306,242.002,117.386,242.393,117.277C249.383,115.316,255.545,113.180,261.459,111.131ZZ" style="fill: rgb(233, 17, 121);"/></g></g></g></svg>