<?xml version="1.0" encoding="utf-8"?>
<!-- Generator: Adobe Illustrator 27.4.0, SVG Export Plug-In . SVG Version: 6.00 Build 0)  -->
<svg version="1.1" id="Layer_1" xmlns="http://www.w3.org/2000/svg" xmlns:xlink="http://www.w3.org/1999/xlink" x="0px" y="0px"
	 viewBox="0 0 463.9 40" style="enable-background:new 0 0 463.9 40;" xml:space="preserve">
<style type="text/css">
	.st0{fill:#02E8CA;}
</style>
<g>
	<polygon class="st0" points="139.2,31.2 139.2,40 99.2,40 99.2,0 107.9,0 107.9,31.2 	"/>
	<polygon class="st0" points="53.4,0 30.4,40 23,40 0,0 10.1,0 26.7,28.8 43.3,0 	"/>
	<rect x="232.2" y="0" class="st0" width="8.8" height="40"/>
	<polygon class="st0" points="290.3,0 290.3,40 281.5,40 281.5,13.5 267.9,29.4 254.3,13.5 254.3,40 245.5,40 245.5,0 254.3,0 
		267.9,15.9 281.5,0 	"/>
	<polygon class="st0" points="455.2,26.8 455.1,26.8 455.1,26.7 	"/>
	<polygon class="st0" points="65.6,8.8 65.6,15.6 88.2,15.6 88.2,24.4 65.6,24.4 65.6,31.2 93.7,31.2 93.7,40 56.8,40 56.8,0 
		93.7,0 93.7,8.8 	"/>
	<polygon class="st0" points="305.8,8.8 305.8,15.6 328.5,15.6 328.5,24.4 305.8,24.4 305.8,31.2 334,31.2 334,40 297,40 297,0 
		334,0 334,8.8 	"/>
	<polygon class="st0" points="390.4,8.8 390.4,15.6 413.1,15.6 413.1,24.4 390.4,24.4 390.4,31.2 418.6,31.2 418.6,40 381.6,40 
		381.6,0 418.6,0 418.6,8.8 	"/>
	<polygon class="st0" points="377.1,0 377.1,8.8 361.7,8.8 361.7,40 353,40 353,8.8 337.6,8.8 337.6,0 	"/>
	<path class="st0" d="M174.5,0l-24.6,0c-4.3,0-7.7,3.5-7.7,7.7v24.5c0,4.3,3.5,7.7,7.7,7.7l24.6,0c4.3,0,7.7-3.5,7.7-7.7l0-24.5
		C182.2,3.5,178.7,0,174.5,0z M173.5,31.3l-22.6,0l0-22.6l22.6,0V31.3z"/>
	<path class="st0" d="M455.1,26.7L455.1,26.7L455.1,26.7L455.1,26.7z"/>
	<path class="st0" d="M423.9,40l8.8,0V26.8l11,0L455,40l8.8,0v-3.2l-8.6-10.1h0v-0.1l0,0.1l1,0c4.2,0,7.7-3.5,7.7-7.7V7.7
		c0-4.2-3.5-7.7-7.7-7.7l-32.3,0L423.9,40z M455.1,18l-22.5,0V8.8l22.5,0V18z"/>
	<path class="st0" d="M196,0c-4.3,0-7.7,3.5-7.7,7.7l0,24.6c0,4.2,3.5,7.7,7.7,7.7l19.9,0l12.3,0v-8.7l-29.9,0c-0.1,0-0.3,0-0.4-0.1
		c-0.7-0.2-1.1-0.8-1.1-1.5V10.2c0-0.7,0.5-1.3,1.1-1.5c0.1,0,0.3-0.1,0.4-0.1l29.9,0v0l0-8.7L196,0z"/>
</g>
</svg>
